<svg width="72" height="74" viewBox="0 0 72 74" fill="none" xmlns="http://www.w3.org/2000/svg">
<path d="M0 33.7358C0 15.7667 14.5668 1.19995 32.5358 1.19995H39.4642C57.4332 1.19995 72 15.7667 72 33.7358V40.6641C72 58.6332 57.4332 73.2 39.4642 73.2H32.5358C14.5668 73.2 0 58.6332 0 40.6641V33.7358Z" fill="#42BDB2"/>
<path d="M0 33.7358C0 15.7667 14.5668 1.19995 32.5358 1.19995H39.4642C57.4332 1.19995 72 15.7667 72 33.7358V40.6641C72 58.6332 57.4332 73.2 39.4642 73.2H32.5358C14.5668 73.2 0 58.6332 0 40.6641V33.7358Z" fill="black" fill-opacity="0.65"/>
<path d="M0.00341797 33.4887C0.00341797 15.5197 14.5702 0.952881 32.5392 0.952881H39.4096C57.3786 0.952881 71.9454 15.5197 71.9454 33.4887V34.6473C71.9454 52.6163 57.3786 67.1831 39.4096 67.1831H32.5392C14.5702 67.1831 0.00341797 52.6163 0.00341797 34.6473V33.4887Z" fill="#42BDB2"/>
<path d="M0.00341797 33.4887C0.00341797 15.5197 14.5702 0.952881 32.5392 0.952881H39.4096C57.3786 0.952881 71.9454 15.5197 71.9454 33.4887V34.6473C71.9454 52.6163 57.3786 67.1831 39.4096 67.1831H32.5392C14.5702 67.1831 0.00341797 52.6163 0.00341797 34.6473V33.4887Z" fill="black" fill-opacity="0.5"/>
<path d="M2.22949 33.0527C2.22949 16.4147 15.7173 2.927 32.3553 2.927H39.5931C56.2311 2.927 69.7189 16.4148 69.7189 33.0528V34.4516C69.7189 51.0896 56.2311 64.5774 39.5931 64.5774H32.3553C15.7173 64.5774 2.22949 51.0896 2.22949 34.4516V33.0527Z" fill="#42BDB2"/>
<path d="M2.22949 33.0527C2.22949 16.4147 15.7173 2.927 32.3553 2.927H39.5931C56.2311 2.927 69.7189 16.4148 69.7189 33.0528V34.4516C69.7189 51.0896 56.2311 64.5774 39.5931 64.5774H32.3553C15.7173 64.5774 2.22949 51.0896 2.22949 34.4516V33.0527Z" fill="black" fill-opacity="0.35"/>
<path fill-rule="evenodd" clip-rule="evenodd" d="M32.3553 2.927C15.7173 2.927 2.22949 16.4147 2.22949 33.0527V34.4516C2.22949 35.1405 2.25262 35.824 2.29813 36.5014H69.6502C69.6958 35.8241 69.7189 35.1405 69.7189 34.4516V33.0528C69.7189 16.4148 56.2311 2.927 39.5931 2.927H32.3553Z" fill="#42BDB2"/>
<path fill-rule="evenodd" clip-rule="evenodd" d="M32.3553 2.927C15.7173 2.927 2.22949 16.4147 2.22949 33.0527V34.4516C2.22949 35.1405 2.25262 35.824 2.29813 36.5014H69.6502C69.6958 35.8241 69.7189 35.1405 69.7189 34.4516V33.0528C69.7189 16.4148 56.2311 2.927 39.5931 2.927H32.3553Z" fill="white" fill-opacity="0.4"/>
<path d="M68.9855 26.2774C67.1405 16.5736 15.6492 6.93021 2.89786 26.533C1.4696 33.3485 2.68044 40.6546 3.174 42.3017C22.4903 67.7943 65.0013 50.2956 67.7549 45.2571C69.5122 42.0416 70.8305 35.9811 68.9855 26.2774Z" fill="#42BDB2"/>
<ellipse cx="9.44518" cy="21.4059" rx="3.24561" ry="2.82535" transform="rotate(-40.9899 9.44518 21.4059)" fill="#F2F2F2"/>
<path d="M30.7016 13.1238C31.2227 15.8065 27.2415 17.5766 22.6483 18.4686C18.0552 19.3607 13.5289 20.1925 13.0079 17.5098C12.156 13.1238 16.1379 9.47151 20.7615 8.75364C27.1406 7.7632 30.1806 10.4411 30.7016 13.1238Z" fill="#F2F2F2"/>
<path d="M59.5091 51.9392C61.1075 54.8534 57.5806 57.5301 54.27 58.4454C50.9594 59.3606 47.2572 59.076 46.9202 57.8571C45.891 54.1342 49.2626 56.0964 53.0525 54.4299C56.5925 53.2299 57.7997 50.7192 59.5091 51.9392Z" fill="white" fill-opacity="0.2"/>
<path d="M30.5966 48.1651L22.2878 39.0918C22.1648 38.9606 22.0663 38.8067 21.9972 38.6381C21.8739 38.4958 21.7755 38.332 21.7067 38.1542C21.553 37.7922 21.4736 37.4007 21.4736 37.0049C21.4736 36.6091 21.553 36.2177 21.7067 35.8556C21.845 35.4844 22.0523 35.1452 22.3168 34.8576L31.0324 25.7842C31.5795 25.2147 32.3214 24.8948 33.0951 24.8948C33.8688 24.8948 34.6107 25.2147 35.1578 25.7842C35.7048 26.3538 36.0122 27.1262 36.0122 27.9316C36.0122 28.737 35.7048 29.5094 35.1578 30.0789L31.381 33.9805H47.6211C48.3916 33.9805 49.1305 34.2991 49.6754 34.8663C50.2202 35.4335 50.5263 36.2028 50.5263 37.0049C50.5263 37.8071 50.2202 38.5763 49.6754 39.1435C49.1305 39.7107 48.3916 40.0294 47.6211 40.0294H31.1777L34.8092 43.9914C35.3408 44.5729 35.6288 45.3505 35.6097 46.1531C35.5906 46.9557 35.2661 47.7175 34.7075 48.271C34.1489 48.8244 33.4019 49.1242 32.631 49.1044C31.8601 49.0845 31.1283 48.7467 30.5966 48.1651Z" fill="white"/>
</svg>
